<svg width="1366" height="768" viewBox="0 0 1366 768" fill="none" xmlns="http://www.w3.org/2000/svg">
<g clip-path="url(#clip0_35_82)">
<rect width="1366" height="768" fill="#F5F3F4"/>
<path d="M391.117 927.583C369.451 979.916 343.117 1042.92 312.117 1116.58C281.117 1190.25 225.618 1224.08 145.618 1218.08C65.6175 1212.08 -3.54916 1184.42 -61.8825 1135.08C-120.216 1085.75 -173.216 1025.75 -220.882 955.083C-268.549 884.416 -280.049 805.416 -255.382 718.083C-230.716 630.75 -179.382 565.583 -101.382 522.583C-23.3825 479.583 47.9509 488.75 112.618 550.083C177.284 611.416 257.951 633.25 354.617 615.583C451.284 597.916 486.951 632.416 461.617 719.083C436.284 805.75 412.784 875.25 391.117 927.583Z" fill="#011936"/>
<path d="M1557.46 28.1796C1561.12 111.846 1520.46 158.346 1435.46 167.68C1350.46 177.013 1282.29 167.346 1230.96 138.68C1179.62 110.013 1105.46 106.346 1008.46 127.68C911.457 149.013 839.457 116.846 792.457 31.1796C745.457 -54.487 751.124 -135.987 809.457 -213.32C867.791 -290.654 938.457 -327.32 1021.46 -323.32C1104.46 -319.32 1183.29 -358.987 1257.96 -442.32C1332.62 -525.654 1391.46 -523.154 1434.46 -434.82C1477.46 -346.487 1507.79 -268.154 1525.46 -199.82C1543.12 -131.487 1553.79 -55.487 1557.46 28.1796Z" fill="#011936"/>
</g>
<defs>
<clipPath id="clip0_35_82">
<rect width="1366" height="768" fill="white"/>
</clipPath>
</defs>
</svg>
