<svg width="400" height="520" viewBox="0 0 400 520" fill="none" xmlns="http://www.w3.org/2000/svg">
<g clip-path="url(#clip0_35_103)">
<rect width="400" height="520" fill="#F5F3F4"/>
<path d="M547.81 123.171C525.863 141.557 503.716 162.114 481.37 184.84C459.023 207.566 430.918 215.982 397.053 210.089C363.188 204.196 346.092 183.357 345.766 147.573C345.44 111.789 331.712 80.0371 304.581 52.3187C277.45 24.6004 281.467 4.14353 316.633 -9.05176C351.799 -22.2471 380.317 -28.6474 402.189 -28.2529C424.06 -27.8584 450.253 -35.771 480.766 -51.9907C511.279 -68.2105 533.907 -62.3412 548.652 -34.3829C563.396 -6.42465 572.428 22.2272 575.749 51.5726C579.07 80.9179 569.756 104.784 547.81 123.171Z" fill="#011936"/>
<path d="M565.049 89.6183C549.029 113.348 533.416 139.218 518.209 167.228C503.003 195.239 478.311 211.085 444.135 214.768C409.959 218.45 387.777 203.138 377.587 168.834C367.398 134.529 345.44 107.8 311.713 88.6454C277.986 69.4913 276.201 48.7203 306.359 26.3323C336.517 3.94429 362.162 -10.0782 383.293 -15.7352C404.424 -21.3922 427.415 -36.2262 452.267 -60.2371C477.119 -84.2481 500.488 -84.8519 522.376 -62.0486C544.263 -39.2454 560.853 -14.1991 572.143 13.0901C583.434 40.3793 581.069 65.8887 565.049 89.6183Z" fill="#1D3557" fill-opacity="0.75"/>
<path d="M113.4 523.035C94.4426 541.953 80.7153 563.775 72.2186 588.502C63.7219 613.228 48.4933 616.6 26.5329 598.618C4.57242 580.636 -16.458 571.527 -36.5583 571.289C-56.6587 571.052 -66.3192 561.017 -65.5399 541.185C-64.7606 521.353 -62.2513 504.241 -58.0119 489.85C-53.7725 475.458 -48.5102 457.654 -42.225 436.438C-35.9399 415.221 -20.5277 399.4 4.01145 388.976C28.5506 378.551 45.0691 387.195 53.567 414.909C62.0649 442.622 78.901 462.842 104.075 475.568C129.25 488.294 132.358 504.116 113.4 523.035Z" fill="#011936"/>
<path d="M117.619 550.886C96.6787 567.583 80.6143 587.747 69.4259 611.378C58.2375 635.008 42.7287 636.669 22.8997 616.361C3.07058 596.053 -16.8189 584.666 -36.7687 582.199C-56.7186 579.733 -65.2057 568.688 -62.2302 549.065C-59.2546 529.441 -54.8617 512.714 -49.0513 498.882C-43.2409 485.05 -36.0351 467.94 -27.4341 447.552C-18.833 427.164 -1.76025 413.151 23.7843 405.515C49.3288 397.878 64.7859 408.302 70.1556 436.787C75.5252 465.273 90.0133 487.236 113.62 502.677C137.226 518.119 138.559 534.188 117.619 550.886Z" fill="#1D3557" fill-opacity="0.75"/>
</g>
<defs>
<clipPath id="clip0_35_103">
<rect width="400" height="520" fill="white"/>
</clipPath>
</defs>
</svg>
